<?xml version="1.0" encoding="UTF-8"?>
<!DOCTYPE svg PUBLIC "-//W3C//DTD SVG 1.1//EN" "http://www.w3.org/Graphics/SVG/1.1/DTD/svg11.dtd">
<svg version="1.1" xmlns="http://www.w3.org/2000/svg" xmlns:xlink="http://www.w3.org/1999/xlink" x="0" y="0" width="455" height="599" viewBox="0, 0, 455, 599">
  <g id="Layer_1">
    <path d="M170.945,136.738 C169.775,132.832 145.457,125.902 130.22,135.667 C127.484,130.591 157.274,115.255 175.634,117.208 C170.549,105.103 143.594,104.32 134.612,103.924 C144.377,87.13 192.032,98.461 198.818,111.736 C209.519,126.19 167.381,162.127 140.03,153.541 C143.09,152.758 168.209,143.776 170.945,136.738 M100.241,44.947 C114.299,9.532 189.305,14.086 215.864,41.329 C215.864,41.329 209.942,6.265 251.414,3.538 C228.563,49.825 260.009,72.091 260.009,72.091 L248.678,89.866 C187.982,45.388 122.66,25.084 100.241,44.947 M7.271,375.022 C-13.042,302.374 74.267,164.674 84.806,144.748 C84.806,144.748 29.339,180.1 15.857,225.802 C-0.154,195.436 47.897,101.584 114.11,69.742 C114.11,69.742 96.236,66.52 90.377,64.765 C151.901,18.478 235.394,84.394 201.806,101.584 C173.681,51.58 113.786,75.268 112.742,114.868 C112.319,130.735 141.839,173.845 129.338,191.818 C89.495,201.196 15.083,311.743 7.271,375.022 M175.634,557.839 C94.769,498.079 168.056,336.133 233.054,309.403 C228.95,325.225 226.61,337.528 233.054,338.698 C239.498,339.868 257.624,342.208 257.624,342.208 C144.413,420.562 149.849,514.477 175.634,557.839 M97.118,480.493 C49.454,404.713 166.301,254.764 200.528,257.059 C200.528,257.059 183.833,290.845 192.617,292.213 C203.174,292.996 226.61,303.94 226.61,303.94 C175.049,329.401 88.568,401.392 97.118,480.493 M47.897,440.65 C13.517,376.201 87.533,229.321 149.462,208.225 C157.481,161.353 248.678,101.584 248.678,101.584 C230.714,126.586 179.144,203.149 192.428,244.558 C147.122,257.05 45.629,357.067 47.897,440.65 M407.231,342.559 C401.93,341.434 401.057,329.914 398.195,313.507 C394.973,295.075 420.434,278.191 423.134,273.466 C427.715,287.731 411.398,326.242 407.231,342.559 M370.952,400.222 C348.452,400.717 305.738,377.74 295.847,358.228 C351.809,362.557 366.353,357.238 385.982,342.802 C395.162,342.289 403.442,348.868 407.753,354.061 C410.237,370.99 395.279,399.691 370.952,400.222 M319.031,337.762 C320.489,337.663 322.964,337.483 326.087,337.258 C331.145,336.862 337.886,336.286 344.618,335.566 C351.35,334.855 358.073,334 363.113,333.046 C365.642,332.569 367.748,332.056 369.251,331.525 C369.998,331.273 370.628,330.958 371.051,330.724 C371.546,330.364 371.78,330.148 371.78,330.148 L370.124,328.492 C370.124,328.492 370.016,328.519 369.863,328.636 C369.584,328.744 369.161,328.915 368.495,329.077 C367.19,329.41 365.147,329.716 362.681,329.941 C357.731,330.4 351.026,330.616 344.33,330.697 C337.625,330.778 330.911,330.715 325.88,330.634 C320.885,330.526 317.546,330.445 317.546,330.445 L317.6,336.871 C313.001,333.838 308.924,330.139 305.369,325.774 C308.555,325.54 324.836,324.325 341.09,322.453 C345.617,321.931 350.153,321.355 354.383,320.743 C358.631,320.131 362.582,319.456 365.957,318.808 C367.649,318.43 369.197,318.097 370.574,317.791 C371.942,317.395 373.13,317.062 374.111,316.774 C375.101,316.45 375.875,316.072 376.406,315.865 C376.928,315.649 377.207,315.532 377.207,315.532 L376.163,313.426 C376.163,313.426 375.92,313.516 375.443,313.66 C374.966,313.804 374.309,314.065 373.391,314.299 C372.446,314.497 371.294,314.731 369.98,315.001 C368.63,315.19 367.118,315.406 365.453,315.649 C362.105,316.036 358.181,316.405 353.96,316.684 C349.73,316.963 345.212,317.206 340.694,317.377 C322.613,318.079 304.505,317.98 304.505,317.98 L304.739,325.036 C301.994,321.553 299.591,317.629 297.494,313.309 C298.115,313.282 299.042,313.237 300.311,313.174 C302.696,313.021 306.044,312.787 310.004,312.427 C317.933,311.707 328.472,310.555 338.975,309.088 C344.213,308.35 349.46,307.549 354.356,306.676 C359.261,305.803 363.824,304.912 367.712,303.94 C369.665,303.517 371.429,302.959 373.004,302.518 C374.579,302.113 375.929,301.51 377.054,301.141 C378.17,300.772 379.043,300.205 379.628,299.953 C380.213,299.656 380.528,299.494 380.528,299.494 L379.34,297.469 C379.34,297.469 379.052,297.595 378.521,297.811 C377.963,298 377.27,298.432 376.172,298.711 C375.083,298.99 373.832,299.467 372.266,299.764 C370.718,300.088 368.99,300.502 367.046,300.79 C363.212,301.492 358.658,302.068 353.78,302.617 C348.893,303.157 343.664,303.607 338.426,303.994 C327.959,304.75 317.456,305.209 309.599,305.398 C305.666,305.488 302.417,305.506 300.194,305.506 C297.89,305.461 296.576,305.443 296.576,305.443 L296.657,311.509 C295.442,308.836 294.299,306.073 293.327,303.103 L293.093,302.41 C292.787,301.501 293.174,300.079 294.182,298.414 C294.776,297.433 295.622,296.353 296.63,295.237 L296.594,299.134 C296.594,299.134 297.629,299.107 299.438,299.053 C301.22,299.017 303.83,298.9 306.989,298.684 C310.157,298.522 313.757,298.216 317.636,297.91 C321.515,297.595 325.628,297.163 329.759,296.776 C333.881,296.29 337.994,295.903 341.846,295.363 C343.781,295.111 345.644,294.859 347.408,294.616 C349.172,294.4 350.837,294.076 352.376,293.833 C353.915,293.59 355.328,293.347 356.579,293.14 C357.83,292.861 358.919,292.618 359.81,292.42 C361.61,292.015 362.627,291.79 362.627,291.79 L362.078,289.513 C362.078,289.513 361.079,289.657 359.315,289.927 C358.442,290.053 357.38,290.215 356.165,290.404 C354.914,290.521 353.519,290.647 351.98,290.791 C350.45,290.917 348.803,291.124 347.039,291.214 C345.275,291.322 343.421,291.439 341.495,291.556 C337.661,291.817 333.539,291.907 329.435,292.105 C325.322,292.204 321.218,292.339 317.366,292.375 C313.514,292.402 309.914,292.465 306.89,292.402 C303.938,292.393 301.454,292.339 299.645,292.24 C309.158,283.735 328.346,273.187 353.762,267.769 C355.256,270.973 357.803,274.096 360.557,275.419 C370.322,280.099 405.323,290.944 389.501,320.239 C382.868,332.524 372.509,341.551 359.54,346.951 C343.358,347.473 329.84,344.404 319.031,337.762 M376.127,201.007 C377.504,199.144 380.321,193.339 383.939,191.8 C388.187,189.991 385.595,200.269 384.092,207.307 L383.813,208.342 C383.354,207.901 382.904,207.469 382.436,207.028 C380.366,205.057 378.26,203.041 376.127,201.007 M420.56,349.39 C433.448,357.445 442.232,362.134 442.232,362.134 C431.684,337.528 434.033,274.24 439.307,274.24 C445.166,280.684 449.855,285.373 449.855,285.373 C449.855,285.373 414.701,222.247 415.286,198.442 C426.419,198.658 427.706,217.405 427.706,217.405 C427.706,217.405 436.184,170.92 384.812,129.511 C394.19,118.963 404.738,127.171 404.738,127.171 C404.738,127.171 382.274,66.817 341.198,55.684 C338.912,39.079 357.272,37.522 357.272,37.522 C320.948,23.851 301.418,55.099 301.418,55.099 C273.293,46.891 268.604,13.492 278.369,5.68 C246.725,9.784 239.498,86.158 327.392,93.772 C336.761,114.85 388.268,172.126 392.129,176.923 C389.303,172.702 372.104,179.281 361.943,187.282 C335.033,160.867 305.54,129.052 281.951,88.687 L277.91,91.045 C308.015,142.579 347.489,180.199 379.205,210.421 C401.12,231.31 418.454,247.825 426.068,262.504 L426.023,262.522 C420.362,265.456 413.981,260.29 414.467,253.261 L381.887,254.908 C381.887,254.908 379.538,269.56 366.065,261.937 C362.15,259.732 359.225,258.706 357.11,258.517 C357.065,258.427 357.038,258.355 356.993,258.265 C356.552,257.293 356.021,256.123 355.4,254.782 C354.671,253.504 353.834,252.064 352.934,250.489 C352.088,248.869 350.873,247.312 349.694,245.593 C348.542,243.847 347.147,242.155 345.68,240.427 C344.267,238.627 342.638,236.944 340.973,235.234 C339.362,233.461 337.508,231.904 335.735,230.248 C333.953,228.601 332.009,227.152 330.182,225.613 C328.256,224.218 326.402,222.76 324.512,221.5 C320.777,218.926 317.141,216.721 313.955,214.957 C310.787,213.202 308.078,211.861 306.125,210.97 C298.241,201.151 296.684,190.702 290.087,181.27 C281.879,169.552 255.32,184.303 236.861,193.087 C239.309,198.073 253.754,192.601 253.754,192.601 C253.754,192.601 260.396,214.867 283.445,219.943 C275.246,212.914 268.991,207.055 268.604,202.366 C281.492,210.178 289.304,204.319 289.304,204.319 C291.968,208.981 296.684,212.14 301.22,214.246 L300.833,215.263 C300.833,215.263 301.112,215.362 301.616,215.542 C302.102,215.713 302.822,215.992 303.758,216.37 C305.63,217.117 308.285,218.269 311.417,219.808 C314.54,221.347 318.131,223.291 321.848,225.586 C323.729,226.711 325.565,228.016 327.482,229.267 C329.3,230.653 331.244,231.967 333.026,233.452 C334.799,234.964 336.671,236.377 338.282,237.997 C339.956,239.563 341.612,241.102 343.034,242.749 C344.528,244.342 345.959,245.908 347.129,247.519 C348.335,249.112 349.586,250.552 350.468,252.064 C351.413,253.531 352.277,254.881 353.051,256.069 C353.591,257.122 354.059,258.031 354.473,258.841 C352.844,259.543 352.286,261.217 352.466,263.269 C321.659,269.938 297.035,284.59 290.168,295.993 C288.386,298.936 287.882,301.6 288.647,303.895 L288.872,304.57 C299.582,337.042 322.649,348.607 345.752,351.145 C330.398,354.232 312.533,353.17 293.408,347.491 L293.408,349.039 C289.952,356.662 292.733,369.316 300.077,383.941 C286.424,385.786 262.106,388.675 260.009,386.155 C257.075,382.645 261.179,349.39 261.179,349.39 C216.062,371.512 163.817,528.112 257.624,593.002 C239.309,557.065 196.352,432.055 298.295,394.561 C272.312,451.783 268.01,540.073 314.504,547.885 C289.025,507.556 316.646,449.146 332.513,428.995 C359.567,457.912 396.764,483.499 433.475,486.244 C417.068,479.215 379.934,452.368 396.53,410.185 C411.767,424.828 422.315,416.044 422.315,416.044 C410.597,397.297 408.842,357.742 420.56,349.39" fill="#ff4500"/>
  </g>
</svg>
